<svg width="24" height="24" viewBox="0 0 24 24" xmlns="http://www.w3.org/2000/svg">
  <defs>
    <clipPath id="circle">
      <circle cx="12" cy="12" r="12"/>
    </clipPath>
  </defs>
  
  <!-- Background circle -->
  <circle cx="12" cy="12" r="12" fill="#B22234"/>
  
  <!-- White stripes -->
  <g clip-path="url(#circle)">
    <rect x="0" y="1.5" width="24" height="1.5" fill="white"/>
    <rect x="0" y="4.5" width="24" height="1.5" fill="white"/>
    <rect x="0" y="7.5" width="24" height="1.5" fill="white"/>
    <rect x="0" y="10.5" width="24" height="1.5" fill="white"/>
    <rect x="0" y="13.5" width="24" height="1.5" fill="white"/>
    <rect x="0" y="16.5" width="24" height="1.5" fill="white"/>
    <rect x="0" y="19.5" width="24" height="1.5" fill="white"/>
    <rect x="0" y="22.5" width="24" height="1.5" fill="white"/>
    
    <!-- Blue canton -->
    <rect x="0" y="0" width="10" height="12" fill="#3C3B6E"/>
    
    <!-- Stars (simplified) -->
    <circle cx="2" cy="2" r="0.3" fill="white"/>
    <circle cx="4" cy="2" r="0.3" fill="white"/>
    <circle cx="6" cy="2" r="0.3" fill="white"/>
    <circle cx="8" cy="2" r="0.3" fill="white"/>
    <circle cx="3" cy="3.5" r="0.3" fill="white"/>
    <circle cx="5" cy="3.5" r="0.3" fill="white"/>
    <circle cx="7" cy="3.5" r="0.3" fill="white"/>
    <circle cx="2" cy="5" r="0.3" fill="white"/>
    <circle cx="4" cy="5" r="0.3" fill="white"/>
    <circle cx="6" cy="5" r="0.3" fill="white"/>
    <circle cx="8" cy="5" r="0.3" fill="white"/>
    <circle cx="3" cy="6.5" r="0.3" fill="white"/>
    <circle cx="5" cy="6.5" r="0.3" fill="white"/>
    <circle cx="7" cy="6.5" r="0.3" fill="white"/>
    <circle cx="2" cy="8" r="0.3" fill="white"/>
    <circle cx="4" cy="8" r="0.3" fill="white"/>
    <circle cx="6" cy="8" r="0.3" fill="white"/>
    <circle cx="8" cy="8" r="0.3" fill="white"/>
    <circle cx="3" cy="9.5" r="0.3" fill="white"/>
    <circle cx="5" cy="9.5" r="0.3" fill="white"/>
    <circle cx="7" cy="9.5" r="0.3" fill="white"/>
  </g>
</svg>
